<mxfile host="app.diagrams.net" agent="Mozilla/5.0 (Macintosh; Intel Mac OS X 10_15_7) AppleWebKit/537.36 (KHTML, like Gecko) Chrome/127.0.0.0 Safari/537.36" version="24.7.7">
  <diagram name="第 1 页" id="fZbu2PIHR7mdxcE2C4wh">
    <mxGraphModel dx="1195" dy="584" grid="1" gridSize="10" guides="1" tooltips="1" connect="1" arrows="1" fold="1" page="1" pageScale="1" pageWidth="827" pageHeight="1169" math="0" shadow="0">
      <root>
        <mxCell id="0" />
        <mxCell id="1" parent="0" />
        <mxCell id="o6RX34Zdt3W5-iIUkgIu-23" value="" style="verticalLabelPosition=bottom;verticalAlign=top;html=1;shape=mxgraph.basic.rect;fillColor2=none;strokeWidth=1;size=20;indent=5;dashed=1;fillColor=#d5e8d4;strokeColor=#82b366;" parent="1" vertex="1">
          <mxGeometry x="330" y="100" width="480" height="320" as="geometry" />
        </mxCell>
        <mxCell id="o6RX34Zdt3W5-iIUkgIu-1" value="" style="rounded=1;whiteSpace=wrap;html=1;labelBackgroundColor=none;fillColor=#FAE5C7;strokeColor=#0F8B8D;fontColor=#143642;" parent="1" vertex="1">
          <mxGeometry x="393" y="131" width="150" height="80" as="geometry" />
        </mxCell>
        <mxCell id="o6RX34Zdt3W5-iIUkgIu-2" value="SPI" style="rounded=0;whiteSpace=wrap;html=1;labelBackgroundColor=none;fillColor=#FAE5C7;strokeColor=#0F8B8D;fontColor=#143642;" parent="1" vertex="1">
          <mxGeometry x="443.5" y="181" width="55" height="30" as="geometry" />
        </mxCell>
        <mxCell id="o6RX34Zdt3W5-iIUkgIu-25" style="edgeStyle=orthogonalEdgeStyle;rounded=0;orthogonalLoop=1;jettySize=auto;html=1;exitX=1;exitY=0.5;exitDx=0;exitDy=0;entryX=0;entryY=0.5;entryDx=0;entryDy=0;strokeColor=#A8201A;fontColor=#143642;fillColor=#FAE5C7;dashed=1;dashPattern=1 4;" parent="1" source="o6RX34Zdt3W5-iIUkgIu-4" target="o6RX34Zdt3W5-iIUkgIu-8" edge="1">
          <mxGeometry relative="1" as="geometry" />
        </mxCell>
        <mxCell id="o6RX34Zdt3W5-iIUkgIu-4" value="" style="rounded=1;whiteSpace=wrap;html=1;labelBackgroundColor=none;fillColor=#FAE5C7;strokeColor=#0F8B8D;fontColor=#143642;" parent="1" vertex="1">
          <mxGeometry x="397" y="290" width="151" height="80" as="geometry" />
        </mxCell>
        <mxCell id="o6RX34Zdt3W5-iIUkgIu-5" value="配置" style="rounded=0;whiteSpace=wrap;html=1;labelBackgroundColor=none;fillColor=#FAE5C7;strokeColor=#0F8B8D;fontColor=#143642;" parent="1" vertex="1">
          <mxGeometry x="480" y="340" width="49" height="30" as="geometry" />
        </mxCell>
        <mxCell id="o6RX34Zdt3W5-iIUkgIu-15" style="rounded=0;orthogonalLoop=1;jettySize=auto;html=1;exitX=0.5;exitY=0;exitDx=0;exitDy=0;labelBackgroundColor=none;strokeColor=#A8201A;fontColor=default;" parent="1" source="o6RX34Zdt3W5-iIUkgIu-4" edge="1">
          <mxGeometry relative="1" as="geometry">
            <mxPoint x="427" y="290" as="sourcePoint" />
            <mxPoint x="473" y="210" as="targetPoint" />
          </mxGeometry>
        </mxCell>
        <mxCell id="o6RX34Zdt3W5-iIUkgIu-7" value="AutoConfig" style="rounded=0;whiteSpace=wrap;html=1;labelBackgroundColor=none;fillColor=#FAE5C7;strokeColor=#0F8B8D;fontColor=#143642;" parent="1" vertex="1">
          <mxGeometry x="411" y="340" width="69" height="30" as="geometry" />
        </mxCell>
        <mxCell id="o6RX34Zdt3W5-iIUkgIu-16" style="rounded=0;orthogonalLoop=1;jettySize=auto;html=1;labelBackgroundColor=none;strokeColor=#A8201A;fontColor=default;entryX=0.5;entryY=1;entryDx=0;entryDy=0;" parent="1" edge="1">
          <mxGeometry relative="1" as="geometry">
            <mxPoint x="481" y="211" as="targetPoint" />
            <mxPoint x="661" y="295.16502946954824" as="sourcePoint" />
          </mxGeometry>
        </mxCell>
        <mxCell id="o6RX34Zdt3W5-iIUkgIu-8" value="" style="rounded=1;whiteSpace=wrap;html=1;labelBackgroundColor=none;fillColor=#f5f5f5;strokeColor=#666666;gradientColor=#b3b3b3;" parent="1" vertex="1">
          <mxGeometry x="642" y="290" width="149" height="80" as="geometry" />
        </mxCell>
        <mxCell id="o6RX34Zdt3W5-iIUkgIu-9" value="核心逻辑" style="rounded=0;whiteSpace=wrap;html=1;labelBackgroundColor=none;fillColor=#dae8fc;strokeColor=#6c8ebf;gradientColor=#7ea6e0;" parent="1" vertex="1">
          <mxGeometry x="710" y="340" width="69" height="30" as="geometry" />
        </mxCell>
        <mxCell id="o6RX34Zdt3W5-iIUkgIu-11" value="builder" style="rounded=0;whiteSpace=wrap;html=1;labelBackgroundColor=none;fillColor=#dae8fc;strokeColor=#6c8ebf;gradientColor=#7ea6e0;" parent="1" vertex="1">
          <mxGeometry x="661" y="340" width="49" height="30" as="geometry" />
        </mxCell>
        <mxCell id="o6RX34Zdt3W5-iIUkgIu-13" style="rounded=0;orthogonalLoop=1;jettySize=auto;html=1;exitX=1;exitY=0.5;exitDx=0;exitDy=0;entryX=0;entryY=0.5;entryDx=0;entryDy=0;labelBackgroundColor=none;strokeColor=#A8201A;fontColor=default;elbow=vertical;" parent="1" source="o6RX34Zdt3W5-iIUkgIu-12" target="o6RX34Zdt3W5-iIUkgIu-1" edge="1">
          <mxGeometry relative="1" as="geometry">
            <mxPoint x="389" y="161" as="targetPoint" />
          </mxGeometry>
        </mxCell>
        <mxCell id="o6RX34Zdt3W5-iIUkgIu-21" value="强依赖" style="edgeLabel;html=1;align=center;verticalAlign=middle;resizable=0;points=[];strokeColor=#0F8B8D;fontColor=#143642;fillColor=#FAE5C7;" parent="o6RX34Zdt3W5-iIUkgIu-13" vertex="1" connectable="0">
          <mxGeometry x="-0.0098" y="1" relative="1" as="geometry">
            <mxPoint as="offset" />
          </mxGeometry>
        </mxCell>
        <mxCell id="o6RX34Zdt3W5-iIUkgIu-14" style="rounded=0;orthogonalLoop=1;jettySize=auto;html=1;entryX=0;entryY=0.5;entryDx=0;entryDy=0;exitX=1;exitY=0.5;exitDx=0;exitDy=0;labelBackgroundColor=none;strokeColor=#A8201A;fontColor=default;dashed=1;" parent="1" source="o6RX34Zdt3W5-iIUkgIu-12" target="o6RX34Zdt3W5-iIUkgIu-4" edge="1">
          <mxGeometry relative="1" as="geometry" />
        </mxCell>
        <mxCell id="o6RX34Zdt3W5-iIUkgIu-22" value="隐形依赖" style="edgeLabel;html=1;align=center;verticalAlign=middle;resizable=0;points=[];strokeColor=#0F8B8D;fontColor=#143642;fillColor=#FAE5C7;" parent="o6RX34Zdt3W5-iIUkgIu-14" vertex="1" connectable="0">
          <mxGeometry x="0.0195" y="3" relative="1" as="geometry">
            <mxPoint as="offset" />
          </mxGeometry>
        </mxCell>
        <mxCell id="o6RX34Zdt3W5-iIUkgIu-12" value="业务调用" style="ellipse;whiteSpace=wrap;html=1;labelBackgroundColor=none;fillColor=#1ba1e2;strokeColor=#006EAF;fontColor=#ffffff;" parent="1" vertex="1">
          <mxGeometry x="50" y="210" width="120" height="80" as="geometry" />
        </mxCell>
        <mxCell id="o6RX34Zdt3W5-iIUkgIu-17" value="yms-file-starter" style="text;html=1;align=center;verticalAlign=middle;whiteSpace=wrap;rounded=0;labelBackgroundColor=none;fontColor=#143642;fontSize=14;" parent="1" vertex="1">
          <mxGeometry x="400" y="290" width="150" height="30" as="geometry" />
        </mxCell>
        <mxCell id="o6RX34Zdt3W5-iIUkgIu-18" value="yms-file-impl" style="text;html=1;align=center;verticalAlign=middle;whiteSpace=wrap;rounded=0;labelBackgroundColor=none;fontColor=#143642;fontSize=14;" parent="1" vertex="1">
          <mxGeometry x="640" y="290" width="150" height="30" as="geometry" />
        </mxCell>
        <mxCell id="o6RX34Zdt3W5-iIUkgIu-19" value="yms-file-api" style="text;html=1;align=center;verticalAlign=middle;whiteSpace=wrap;rounded=0;labelBackgroundColor=none;fontColor=#143642;fontSize=14;" parent="1" vertex="1">
          <mxGeometry x="393" y="131" width="150" height="30" as="geometry" />
        </mxCell>
        <mxCell id="o6RX34Zdt3W5-iIUkgIu-26" value="二方包构成" style="text;html=1;align=center;verticalAlign=middle;whiteSpace=wrap;rounded=0;labelBackgroundColor=none;fontColor=#FF3399;fontSize=17;" parent="1" vertex="1">
          <mxGeometry x="620" y="120" width="150" height="30" as="geometry" />
        </mxCell>
      </root>
    </mxGraphModel>
  </diagram>
</mxfile>
